<?xml version="1.0" standalone="no"?>
<!DOCTYPE svg PUBLIC "-//W3C//DTD SVG 20010904//EN"
 "http://www.w3.org/TR/2001/REC-SVG-20010904/DTD/svg10.dtd">
<svg version="1.0" xmlns="http://www.w3.org/2000/svg"
 width="500.000000pt" height="500.000000pt" viewBox="0 0 500.000000 500.000000"
 preserveAspectRatio="xMidYMid meet">

<g transform="translate(0.000000,500.000000) scale(0.100000,-0.100000)"
fill="#000000" stroke="none">
<path d="M0 2500 l0 -2500 2500 0 2500 0 0 2500 0 2500 -2500 0 -2500 0 0
-2500z m875 764 c30 -14 65 -64 65 -93 0 -6 -7 -28 -16 -50 -30 -76 -121 -91
-180 -30 -50 52 -32 141 37 176 32 17 54 16 94 -3z m-317 -186 c-3 -9 -35 -14
-101 -16 l-97 -3 0 -589 0 -590 101 0 c76 0 100 -3 97 -12 -7 -19 -208 -24
-220 -6 -9 15 -11 1212 -1 1221 3 4 55 7 116 7 82 0 108 -3 105 -12z m4100 4
c9 -7 12 -56 10 -210 -4 -270 -22 -277 -26 -9 l-2 197 -1785 0 c-1580 0 -1785
2 -1785 15 0 13 205 15 1788 15 983 0 1793 -4 1800 -8z m-2226 -179 c14 -13
20 -12 48 2 47 24 140 22 196 -6 62 -29 104 -95 104 -160 0 -50 -9 -83 -84
-296 -25 -72 -43 -139 -40 -147 9 -22 62 -20 101 3 51 32 90 101 147 264 65
184 84 225 133 273 108 108 300 116 407 16 118 -111 70 -333 -89 -415 -60 -31
-169 -35 -228 -9 l-46 21 -10 -36 c-12 -44 1 -76 42 -107 38 -28 145 -34 218
-12 60 18 139 71 166 112 9 14 52 126 95 248 91 259 102 274 193 267 30 -3 75
-57 75 -90 0 -16 -36 -134 -80 -262 -45 -129 -80 -245 -78 -259 6 -51 81 -34
119 26 11 18 58 142 104 275 47 133 92 253 101 266 22 34 70 53 108 42 39 -11
76 -52 76 -85 0 -14 -38 -132 -85 -263 -47 -131 -85 -244 -85 -252 0 -38 57
-52 98 -23 25 17 54 69 78 139 12 37 13 53 3 82 -16 49 -14 152 5 217 20 68
71 145 114 169 62 36 150 19 177 -34 31 -59 17 -136 -64 -342 -9 -23 -7 -31 9
-47 41 -41 113 -14 140 50 36 88 166 74 164 -17 -4 -146 -191 -261 -339 -208
-22 8 -41 15 -41 15 -1 0 -16 -22 -34 -50 -60 -94 -156 -151 -266 -158 -78 -5
-124 6 -179 43 l-35 24 -35 -24 c-54 -36 -100 -48 -171 -43 -52 3 -72 10 -110
37 l-47 32 -56 -24 c-90 -39 -158 -50 -268 -45 -105 6 -167 26 -231 75 l-34
25 -26 -21 c-15 -12 -54 -35 -87 -51 -134 -67 -301 -21 -344 93 -22 56 -12
112 49 288 61 175 68 214 39 232 -24 15 -83 -18 -114 -63 -14 -21 -65 -145
-111 -277 -47 -131 -91 -248 -99 -260 -8 -11 -34 -29 -58 -38 -40 -15 -47 -15
-81 -1 -71 30 -71 34 55 386 137 388 144 402 188 416 39 13 79 7 103 -13z
m-1657 -8 c16 -15 25 -36 25 -54 0 -17 -35 -133 -79 -258 -43 -125 -82 -238
-85 -250 -8 -26 23 -63 53 -63 25 0 78 38 113 80 17 22 53 106 94 220 36 102
79 206 95 231 31 49 81 88 138 107 71 25 186 8 232 -34 20 -18 21 -18 37 3 38
47 102 57 146 22 43 -34 36 -72 -74 -381 -55 -155 -99 -283 -97 -285 2 -2 32
15 66 38 76 51 133 120 177 217 28 61 39 75 69 88 43 18 82 4 101 -35 24 -47
-46 -211 -131 -308 -60 -68 -175 -144 -278 -184 l-84 -31 -33 -92 c-65 -177
-110 -239 -208 -287 -39 -20 -63 -24 -142 -24 -86 0 -100 3 -142 27 -130 77
-159 214 -69 327 34 43 162 114 229 127 33 7 54 24 29 24 -8 0 -31 13 -53 28
l-38 28 -56 -31 c-49 -27 -64 -30 -140 -30 -102 0 -154 23 -200 86 -44 62 -47
107 -12 214 71 213 152 437 166 457 37 52 111 64 151 23z m1176 -591 c34 -33
44 -73 29 -119 -16 -49 -53 -75 -107 -75 -38 0 -50 5 -79 34 -104 104 51 262
157 160z m2719 -299 l0 -165 -1651 0 c-1316 0 -1650 3 -1647 13 4 9 342 13
1636 15 l1632 2 0 150 c0 127 2 150 15 150 13 0 15 -25 15 -165z"/>
<path d="M3220 2747 c-27 -14 -68 -80 -72 -117 -3 -20 3 -25 30 -31 19 -4 50
-3 69 3 61 17 80 108 30 143 -26 18 -26 18 -57 2z"/>
<path d="M1192 2744 c-29 -20 -54 -77 -123 -277 l-54 -158 25 -20 c39 -33 109
-10 147 47 23 36 123 319 123 350 0 31 -42 74 -72 74 -13 0 -34 -7 -46 -16z"/>
<path d="M990 1941 c-47 -15 -109 -51 -120 -70 -23 -44 -6 -91 32 -91 54 0
105 58 123 138 7 34 5 35 -35 23z"/>
</g>
</svg>
